# xmcd CD database file
#
# Track frame offsets:
#	150
#	16725
#	33567
#	50912
#	71072
#	88827
#	104360
#	126310
#	147585
#	161562
#	179585
#	198225
#	218377
#	235265
#	251242
#	273042
#
# Disc length: 3892 seconds
#
# Revision: 0
# Processed by: cddbd v1.5.1PL0 Copyright (c) Steve Scherf et al.
# Submitted via: CDex 1.51
#
DISCID=ee0f3210
DTITLE=Various Artist - New Music Best Selection 7
DYEAR=1991
DGENRE=Japanese Pop
TTITLE0=荒井由実 - 中央フリーウェイ
TTITLE1=荒井由実 - あの日に帰りたい
TTITLE2=Hi-Fi Set - 冷たい雨
TTITLE3=Hi-Fi Set - ヒィーリング
TTITLE4=Circus - Mr.サマータイム
TTITLE5=Circus - アメリカン フィーリング
TTITLE6=吉田美奈子 - 愛は思うまま
TTITLE7=三好鉄生 - 涙をふいて
TTITLE8=荒井由実 - ルージュの伝言
TTITLE9=荒井由実 - やさしさに包まれたなら
TTITLE10=Yellow Magic Orchestra - 君に、胸キュン
TTITLE11=Yellow Magic Orchestra - Rydeen
TTITLE12=ブレッド&バター - 青い地平線
TTITLE13=ブレッド and バター - あの頃のまま
TTITLE14=荒井由実 - 翳りゆく部屋
TTITLE15=荒井由実 - 卒業写真
EXTD=YEAR: 1991
EXTT0=
EXTT1=
EXTT2=
EXTT3=
EXTT4=
EXTT5=
EXTT6=
EXTT7=
EXTT8=
EXTT9=
EXTT10=
EXTT11=
EXTT12=
EXTT13=
EXTT14=
EXTT15=
PLAYORDER=
